<!-- https://github.com/bbfh-dev/eyecons/blob/main/.docs/pin.svg?short_path=6659513 -->
<svg xmlns="http://www.w3.org/2000/svg" width="16" height="16" viewBox="0 0 16 16" fill="#ffffff">
	<path
		d="m14 4.1738v8.8262c0 0.554-0.446 1-1 1h-8.8262c0.41051 1.1666 1.5157 2 2.8262 2h6c1.662 0 3-1.338 3-3v-6c0-1.3105-0.83335-2.4157-2-2.8262zm-11-2.1738h6c0.554 0 1 0.446 1 1v6c0 0.554-0.446 1-1 1h-6c-0.554 0-1-0.446-1-1v-6c0-0.554 0.446-1 1-1zm0-2h6c1.662 0 3 1.338 3 3v6c0 1.662-1.338 3-3 3h-6c-1.662 0-3-1.338-3-3v-6c0-1.662 1.338-3 3-3z"
		fill-rule="evenodd" />
</svg>