<svg xmlns="http://www.w3.org/2000/svg" width="16" height="16" viewBox="0 0 16 16" fill="#ffffff">
	<path
		d="m12.293 13.707c0.39174 0.39174 1.0223 0.39174 1.4141 0s0.39174-1.0223 0-1.4141l-4.293-4.293 4.293-4.293c0.39174-0.39174 0.39174-1.0223 0-1.4141-0.39174-0.39174-1.0223-0.39174-1.4141 0l-4.293 4.293-4.293-4.293c-0.39174-0.39174-1.0223-0.39174-1.4141 0s-0.39174 1.0223 0 1.4141l4.293 4.293-4.293 4.293c-0.39174 0.39174-0.39174 1.0223 0 1.4141 0.39174 0.39174 1.0223 0.39174 1.4141 0l4.293-4.293z" />
</svg>