<!-- https://github.com/bbfh-dev/eyecons/blob/main/.docs/pin.svg?short_path=6659513 -->
<svg xmlns="http://www.w3.org/2000/svg" width="16" height="16" viewBox="0 0 16 16" fill="#ffffff">
	<path
		d="m8 0a8 8 0 0 0-8 8 8 8 0 0 0 8 8 8 8 0 0 0 8-8 8 8 0 0 0-8-8zm0 2a1.5 6 0 0 1 1.4785 5h-2.957a1.5 6 0 0 1 1.4785-5zm2.5742 0.58008a6 6 0 0 1 3.3398 4.4199h-2.4473a3.5 8 0 0 0-0.89258-4.4199zm-5.1426 0.0097657a3.5 8 0 0 0-0.89648 4.4102h-2.4453a6 6 0 0 1 3.3418-4.4102zm-3.3418 6.4102h2.4453a3.5 8 0 0 0 0.89648 4.4102 6 6 0 0 1-3.3418-4.4102zm4.4316 0h2.957a1.5 6 0 0 1-1.4785 5 1.5 6 0 0 1-1.4785-5zm4.9434 0h2.4453a6 6 0 0 1-3.3418 4.4102 3.5 8 0 0 0 0.89648-4.4102z"
		fill-rule="evenodd" />
</svg>