<svg xmlns="http://www.w3.org/2000/svg" width="16" height="16" viewBox="0 0 16 16" fill="currentColor">
	<path
		d="m4.3965 1.4492c-1.2748-2.912e-4 -2.4877 0.55489-3.3223 1.5176-0.69193 0.79889-1.0745 1.8206-1.0742 2.8789v0.0039c0.0039 1.1638 0.4696 2.28 1.2949 3.1016l4.7969 4.8086c1.0456 1.0456 2.7709 1.0456 3.8164 0l4.7969-4.8086 2e-3 -0.00195c0.82412-0.82142 1.289-1.9367 1.2929-3.0996v-0.0039c2.97e-4 -1.0583-0.3823-2.08-1.0742-2.8789-0.83461-0.96262-2.0475-1.5178-3.3223-1.5176-1.1654-1.245e-4 -2.2847 0.46265-3.1094 1.2871l-0.49414 0.49414-0.49414-0.49414c-0.82468-0.82442-1.944-1.2872-3.1094-1.2871zm0 2c0.63643-7.07e-5 1.2457 0.25169 1.6953 0.70117l1.9082 1.9082 1.9082-1.9082c0.44954-0.44944 1.0588-0.70124 1.6953-0.70117 0.6958-1.413e-4 1.3543 0.29994 1.8105 0.82617 0.37781 0.43622 0.58564 0.99276 0.58594 1.5684-0.0026 0.63489-0.25556 1.242-0.70508 1.6895l-2e-3 0.00195-4.8008 4.8105c-0.28089 0.27924-0.70592 0.28041-0.98633 0l-4.7988-4.8105-0.0019532-0.0019531c-0.44957-0.44755-0.70246-1.0545-0.70508-1.6895 2.918e-4 -0.57562 0.20814-1.1322 0.58594-1.5684 0.4562-0.52621 1.1148-0.82633 1.8105-0.82617z" />
</svg>