<svg xmlns="http://www.w3.org/2000/svg" width="16" height="16" viewBox="0 0 16 16" fill="currentColor">
	<path
		d="m8 0.58594-7.707 7.707c-0.39052 0.39052-0.39052 1.0235 0 1.4141 0.39052 0.39052 1.0235 0.39052 1.4141 0l0.29297-0.29297v3.5859c0 1.662 1.338 3 3 3h6c1.662 0 3-1.338 3-3v-3.5859l0.29297 0.29297c0.39052 0.39052 1.0235 0.39052 1.4141 0 0.39052-0.39052 0.39052-1.0235 0-1.4141l-7.707-7.707zm0 2.8281 4 4v5.5859c0 0.554-0.446 1-1 1h-6c-0.554 0-1-0.446-1-1v-5.5859l4-4z"
		fill-rule="evenodd" />
</svg>