<svg xmlns="http://www.w3.org/2000/svg" width="16" height="16" viewBox="0 0 16 16" fill="currentColor">
	<path
		d="m5 0c-1.3261 0-2.5975 0.52717-3.5352 1.4648-0.93768 0.93768-1.4648 2.2091-1.4648 3.5352 0 1.3261 0.52716 2.5975 1.4648 3.5352 0.93768 0.93768 2.2091 1.4648 3.5352 1.4648 0.97793-0.00114 1.934-0.2891 2.75-0.82812l1.5352 1.5352-0.87305 0.87695c-0.78024 0.7825-0.77943 2.0487 0.0019531 2.8301l0.58594 0.58594c0.78136 0.7814 2.0476 0.78215 2.8301 0.001953l0.87695-0.87305 0.58203 0.58203c0.093 0.093997 0.20417 0.1697 0.32617 0.2207 0.1221 0.0509 0.25257 0.076172 0.38477 0.076171 0.1322 0 0.26277-0.025271 0.38477-0.076171 0.122-0.051 0.23317-0.12671 0.32617-0.2207 0.093997-0.093 0.16785-0.20407 0.21875-0.32617 0.050997-0.122 0.078125-0.25247 0.078124-0.38477 0-0.1322-0.027127-0.26267-0.078124-0.38477-0.0509-0.122-0.12475-0.23317-0.21875-0.32617l-5.5391-5.5391c0.53903-0.81596 0.82696-1.7721 0.82812-2.75 0-0.65661-0.12959-1.3074-0.38086-1.9141-0.25127-0.60663-0.6197-1.1568-1.084-1.6211-0.4643-0.4643-1.0145-0.83271-1.6211-1.084-0.60663-0.25127-1.2575-0.38086-1.9141-0.38086zm0 2c0.79565 0 1.5585 0.3163 2.1211 0.87891 0.56261 0.56261 0.87891 1.3254 0.87891 2.1211s-0.3163 1.5585-0.87891 2.1211c-0.56261 0.56261-1.3254 0.87891-2.1211 0.87891s-1.5585-0.3163-2.1211-0.87891c-0.56261-0.56261-0.87891-1.3254-0.87891-2.1211s0.3163-1.5585 0.87891-2.1211c0.56261-0.56261 1.3254-0.87891 2.1211-0.87891z" />
</svg>