<svg xmlns="http://www.w3.org/2000/svg" width="16" height="16" viewBox="0 0 16 16" fill="currentColor">
	<path
		d="m11 7a1.0001 1.0001 0 0 0-0.86914 0.50391l-4 7a1 1 0 0 0 0.37305 1.3652 1 1 0 0 0 1.3652-0.37305l0.85547-1.4961h4.5508l0.85547 1.4961a1 1 0 0 0 1.3652 0.37305 1 1 0 0 0 0.37305-1.3652l-4-7a1.0001 1.0001 0 0 0-0.86914-0.50391zm0 3.0176 1.1328 1.9824h-2.2656zm-5-10.018c-0.55228 0-1 0.44772-1 1v1h-4c-0.554 0-1 0.446-1 1s0.446 1 1 1h6.1641c-0.33064 1.4578-0.89612 2.8181-1.6543 4.0176-0.44059-0.7114-0.80184-1.4841-1.0684-2.3066a0.96373 0.96373 0 0 0-1.2148-0.61914 0.96373 0.96373 0 0 0-0.61914 1.2129c0.39283 1.2124 0.95983 2.3335 1.668 3.3379-1.0298 1.1337-2.2662 2.0361-3.6523 2.6191a1 1 0 0 0-0.53516 1.3105 1 1 0 0 0 1.3105 0.5332c4.0531-1.7048 6.9255-5.5592 7.8125-10.105h1.7891c0.554 0 1-0.446 1-1s-0.446-1-1-1h-4v-1c0-0.55228-0.44772-1-1-1z" />
</svg>