<svg xmlns="http://www.w3.org/2000/svg" width="16" height="16" viewBox="0 0 16 16" fill="currentColor">
	<path
		d="m12 0.0097656c-0.94946 0-1.8983 0.33444-2.6504 1l-3.0586 3.0488c0.23545-0.033621 0.47181-0.052734 0.70898-0.052734 0.61912 0 1.2403 0.11514 1.8262 0.34375l1.7598-1.7598c0.094329-0.094333 0.19684-0.17628 0.30273-0.24805 0.33718-0.22852 0.7234-0.34375 1.1113-0.34375s0.77415 0.11523 1.1113 0.34375c0.10589 0.071764 0.2084 0.15371 0.30273 0.24805 0.038802 0.039458 0.075941 0.080509 0.11133 0.12305 0.02079 0.024401 0.041106 0.049132 0.060547 0.074219l0.001953 0.0019531c0.02583 0.033709 0.050578 0.068231 0.074218 0.10352 0.02357 0.034774 0.045257 0.069673 0.066407 0.10547 0.0013 0.00195 0.002606 0.0038993 0.003906 0.0058593 7.36e-4 0.0012601 0.001153 0.0026463 0.001953 0.0039063 0.36004 0.61759 0.36004 1.3746 0 1.9922-6.65e-4 0.0013-0.001253 0.0026062-0.001953 0.0039062-0.0012 0.0020301-0.002706 0.0038294-0.003906 0.0058594-0.02114 0.035797-0.042827 0.070695-0.066407 0.10547-0.02424 0.035973-0.049642 0.071148-0.076171 0.10547-0.01943 0.025087-0.039757 0.049818-0.060547 0.074219-0.03539 0.042538-0.07253 0.083589-0.11133 0.12305l-3 3c-0.094329 0.094333-0.19684 0.17626-0.30273 0.24805-0.6744 0.45718-1.5483 0.45718-2.2227 0-0.10595-0.071794-0.2084-0.15371-0.30273-0.24805-0.094332-0.094332-0.17626-0.19684-0.24805-0.30273-0.016528-0.024381-0.031542-0.049335-0.046875-0.074219-0.095465-0.030404-0.19271-0.046875-0.29102-0.046875-0.18989 0-0.37793 0.054727-0.55078 0.17188-0.061336 0.041569-0.11329 0.083996-0.15625 0.12695l-0.74023 0.74023c0.16755 0.28603 0.37464 0.55433 0.61914 0.79883 1.5537 1.5537 4.1025 1.5537 5.6562 0l3-3c1.5537-1.5537 1.5537-4.1025 0-5.6562-0.77686-0.77686-1.8023-1.166-2.8281-1.166zm-5 4.9961c-0.94946 0-1.8983 0.33444-2.6504 1l-3.1777 3.166c-1.5537 1.5537-1.5537 4.1025 0 5.6562 1.5537 1.5537 4.1025 1.5537 5.6562 0l2.8848-2.8848c-0.85138 0.1208-1.7274 0.02304-2.5371-0.29102l-1.7617 1.7617c-0.094333 0.094331-0.19684 0.17626-0.30273 0.24805-0.6744 0.45718-1.5483 0.45718-2.2227 0-0.10589-0.071825-0.2084-0.15371-0.30273-0.24805-0.094332-0.09433-0.17626-0.19684-0.24805-0.30273-0.45718-0.6744-0.45718-1.5483 0-2.2227 0.071788-0.1059 0.15371-0.2084 0.24805-0.30273l3-3c0.094332-0.094332 0.19684-0.17628 0.30273-0.24805 0.33718-0.22852 0.7234-0.34375 1.1113-0.34375s0.77415 0.11523 1.1113 0.34375c0.10589 0.071764 0.2084 0.15371 0.30273 0.24805 0.038796 0.039458 0.075937 0.080509 0.11133 0.12305 0.020786 0.024401 0.041114 0.049132 0.060547 0.074219l0.0019531 0.0019531c0.025832 0.033709 0.050585 0.068231 0.074219 0.10352 0.017426 0.025705 0.032922 0.051972 0.048828 0.078125 0.27938 0.089487 0.58131 0.046358 0.83984-0.12891 0.061496-0.041688 0.11335-0.084056 0.15625-0.12695l0.74023-0.74023c-0.16755-0.28603-0.37464-0.55433-0.61914-0.79883-0.77686-0.77686-1.8023-1.166-2.8281-1.166z" />
</svg>