<svg version="1.1" viewBox="0 0 32 32" xmlns="http://www.w3.org/2000/svg" fill="currentColor">
  <path
    d="m2 16.576v5.4238a3.4464 3.4464 0 0 0 1.7363 2.9922l10.527 6.0156a3.5 3.5 0 0 0 1.2363 0.41797v-7.1367l-13.5-7.7129z"
    style="paint-order:stroke fill markers" />
  <path d="m26 10.861-6 3.4277v6.8496l6-3.4297v-6.8477z" style="paint-order:stroke fill markers" />
  <path
    d="m29.744 8.7207-2.7441 1.5684v7.7109a0.50005 0.50005 0 0 1-0.25195 0.43359l-7 4a0.50005 0.50005 0 0 1-0.74805-0.43359v-7.1387l-2.5 1.4277v7.709 7.4277a3.5 3.5 0 0 0 1.2363-0.41797l10.527-6.0156a3.4464 3.4464 0 0 0 1.7363-2.9922v-12a3.4464 3.4464 0 0 0-0.25586-1.2793z"
    style="paint-order:stroke fill markers" />
  <path
    d="m2.248 8.7188c-0.16243 0.40594-0.24811 0.84096-0.24805 1.2812v5.5078a0.5 0.5 0 0 1 0.24805 0.058594l13.252 7.5723v-6.8477l-13.252-7.5723z"
    style="paint-order:stroke fill markers" />
  <path
    d="m16 0.53125a3.5 3.5 0 0 0-1.7363 0.46094l-10.527 6.0156a3.4464 3.4464 0 0 0-0.96094 0.86133l13.225 7.5547 13.223-7.5547a3.4464 3.4464 0 0 0-0.95898-0.86133l-10.527-6.0156a3.5 3.5 0 0 0-1.7363-0.46094zm0 3.4688 7 4-7 4-7-4 7-4z"
    style="paint-order:stroke fill markers" />
</svg>