<svg xmlns="http://www.w3.org/2000/svg" width="16" height="16" viewBox="0 0 16 16" fill="currentColor">
	<path
		d="M 8,1.9365e-7 C 7.6856673,2.6260432e-4 7.3769327,0.08319698 7.10478,0.24048019 L 1.72738,3.3444802 c -0.5541569,0.3203379 -0.89538977,0.911917 -0.89522,1.552 l 2e-8,6.2079998 c -1.6977e-4,0.640083 0.34106308,1.231662 0.89521998,1.552 l 5.3774,3.104 c 0.5540455,0.319474 1.2363545,0.319474 1.7904,0 l 5.3774,-3.104 c 0.554157,-0.320338 0.89539,-0.911917 0.89522,-1.552 V 4.8964802 c 1.7e-4,-0.640083 -0.341063,-1.2316621 -0.89522,-1.552 L 8.89518,0.24048019 C 8.6230273,0.08319698 8.3142927,2.6260432e-4 7.99996,1.9365e-7 Z M 2.6246,6.0928002 l 4.3407,2.5058 V 13.6102 L 2.6246,11.1044 Z m 10.751,0 V 11.1044 l -4.3407,2.5058 10e-8,-5.0115998 z" />
</svg>