<svg xmlns="http://www.w3.org/2000/svg" width="16" height="16" viewBox="0 0 16 16" fill="currentColor">
	<path
		d="m8 0c2.0485 0.001348 4.0185 0.7885 5.5039 2.1992-2.6475 0.68169-4.4995 3.0669-4.5039 5.8008 0.00412 2.7274 1.8472 5.1088 4.4863 5.7969-1.4804 1.408-3.4433 2.1962-5.4863 2.2031-4.4183 0-8-3.5817-8-8s3.5817-8 8-8zm0 2c-3.3137 0-6 2.6863-6 6 0 3.3137 2.6863 6 6 6 0.50617-0.0062 1.0095-0.07641 1.498-0.20898-1.5905-1.5068-2.4935-3.6-2.498-5.791 0.0043611-2.1978 0.91269-4.2969 2.5117-5.8047-0.49355-0.12911-1.0016-0.19474-1.5117-0.19531z" />
</svg>