<svg xmlns="http://www.w3.org/2000/svg" width="16" height="16" viewBox="0 0 16 16" fill="currentColor">
	<path
		d="m8 1a7 7 0 0 0-7 7 7 7 0 0 0 7 7 7 7 0 0 0 1-0.07031 7 7 0 0 0 0.2617-0.05859 1 1 0 0 0 0.668-0.9375 1 1 0 0 0-0.0625-0.334l-1.213-3.639a1 1 0 0 1-0.07617-0.3828 1 1 0 0 1 0.07617-0.3828 1 1 0 0 1 0.2168-0.3242 1 1 0 0 1 0.3242-0.2168 1 1 0 0 1 0.3828-0.07617 1 1 0 0 1 0.1309 0.007812 1 1 0 0 1 0.1191 0.02344l0.1328 0.04492 3.689 1.229a1 1 0 0 0 0.2793 0.04688 1 1 0 0 0 0.9883-0.9023 7 7 0 0 0 0.08203-1.027 7 7 0 0 0-7-7zm-0.5 1.5a1.5 1.5 0 0 1 1.5 1.5 1.5 1.5 0 0 1-1.5 1.5 1.5 1.5 0 0 1-1.5-1.5 1.5 1.5 0 0 1 1.5-1.5zm4 2a1.5 1.5 0 0 1 1.5 1.5 1.5 1.5 0 0 1-1.5 1.5 1.5 1.5 0 0 1-1.5-1.5 1.5 1.5 0 0 1 1.5-1.5zm-7.5 1.5a1.5 1.5 0 0 1 1.5 1.5 1.5 1.5 0 0 1-1.5 1.5 1.5 1.5 0 0 1-1.5-1.5 1.5 1.5 0 0 1 1.5-1.5zm2 4a1.5 1.5 0 0 1 1.5 1.5 1.5 1.5 0 0 1-1.5 1.5 1.5 1.5 0 0 1-1.5-1.5 1.5 1.5 0 0 1 1.5-1.5z" />
</svg>