<svg xmlns="http://www.w3.org/2000/svg" width="16" height="16" viewBox="0 0 16 16" fill="currentColor">
	<path
		d="m4 0c-2.216 0-4 1.784-4 4v8c0 2.216 1.784 4 4 4h8c2.216 0 4-1.784 4-4v-8c0-2.216-1.784-4-4-4h-8zm0 2h8c1.108 0 2 0.892 2 2v8c0 1.108-0.892 2-2 2h-8c-1.108 0-2-0.892-2-2v-8c0-1.108 0.892-2 2-2zm1.5 2c-0.82842 0-1.5 0.67158-1.5 1.5s0.67158 1.5 1.5 1.5 1.5-0.67158 1.5-1.5-0.67158-1.5-1.5-1.5zm4.5 4-1.3496 2-1.9766-1-2.6738 2c0 0.78831 0.57756 1.0762 1 1.0762h6c0.42238 0 1-0.28781 1-1.0762l-2-3z" />
</svg>