<!-- https://github.com/bbfh-dev/eyecons/blob/main/.docs/pin.svg?short_path=6659513 -->
<svg xmlns="http://www.w3.org/2000/svg" width="16" height="16" viewBox="0 0 16 16" fill="currentColor">
	<path
		d="m10.756 3.8293-2.9555 2.9555c-0.8145-0.38688-1.7598-0.38688-2.5743-4e-7l3.994 3.994c0.38864-0.81722 0.38762-1.7662-0.0027621-2.5826l2.9527-2.9527zm-0.70711-3.5355c-0.39174-0.39174-1.0225-0.39174-1.4142 0-0.39174 0.39174-0.39174 1.0225 0 1.4142l0.70711 0.70711-2.1241 2.1241c-1.5566-0.22237-3.1271 0.30046-4.2399 1.4115l-0.70711 0.70711 2.8284 2.8284-2.8067 2.8067c-0.39174 0.39174-0.39174 1.0225 0 1.4142 0.39174 0.39174 1.0225 0.39174 1.4142 0l2.8067-2.8067 2.8284 2.8284 0.70711-0.70711c1.1128-1.1128 1.6368-2.6847 1.4142-4.2426l2.1213-2.1213 0.70711 0.70711c0.39174 0.39174 1.0225 0.39174 1.4142 0 0.39174-0.39174 0.39174-1.0225 0-1.4142z"
		fill-rule="evenodd" />
</svg>