<!-- https://github.com/bbfh-dev/eyecons/blob/main/.docs/pin.svg?short_path=6659513 -->
<svg xmlns="http://www.w3.org/2000/svg" width="16" height="16" viewBox="0 0 16 16" fill="currentColor">
	<path
		d="m4.5 8c-1.9211482 0-3.5 1.5788518-3.5 3.5 0 1.921148 1.5788518 3.5 3.5 3.5 1.5742853 0 2.9174078-1.060034 3.3515625-2.5h6.1484375a1 1 0 0 0 1-1 1 1 0 0 0-1-1h-6.1484375c-0.4341547-1.4399663-1.7772772-2.5-3.3515625-2.5zm0 2c0.8402701 0 1.5 0.65973 1.5 1.5s-0.6597299 1.5-1.5 1.5-1.5-0.65973-1.5-1.5 0.6597299-1.5 1.5-1.5z"
		fill-rule="evenodd" />
	<path
		d="m11.5 1c-1.5742853 0-2.9174078 1.0600337-3.3515625 2.5h-6.1484375a1 1 0 0 0-1 1 1 1 0 0 0 1 1h6.1484375c0.4341547 1.4399663 1.7772772 2.5 3.3515625 2.5 1.921148 0 3.5-1.5788518 3.5-3.5s-1.578852-3.5-3.5-3.5zm0 2c0.84027 0 1.5 0.6597299 1.5 1.5s-0.65973 1.5-1.5 1.5-1.5-0.6597299-1.5-1.5 0.65973-1.5 1.5-1.5z"
		fill-rule="evenodd" />
</svg>