<svg xmlns="http://www.w3.org/2000/svg" width="16" height="16" viewBox="0 0 16 16" fill="currentColor">
	<path
		d="m11 8a3 3 0 0 1-3 3 3 3 0 0 1-3-3 3 3 0 0 1 3-3 3 3 0 0 1 3 3zm-3-8c-0.554 0-1 0.446-1 1v2.1133a5 5 0 0 0-1.7539 0.71875l-1.4883-1.4883c-0.39174-0.39174-1.0223-0.39174-1.4141 0s-0.39174 1.0223 0 1.4141l1.4883 1.4883a5 5 0 0 0-0.71875 1.7539h-2.1133c-0.554 0-1 0.446-1 1s0.446 1 1 1h2.1133a5 5 0 0 0 0.71875 1.7539l-1.4883 1.4883c-0.39174 0.39174-0.39174 1.0223 0 1.4141s1.0223 0.39174 1.4141 0l1.4883-1.4883a5 5 0 0 0 1.7539 0.71875v2.1133c0 0.554 0.446 1 1 1s1-0.446 1-1v-2.1133a5 5 0 0 0 1.7539-0.71875l1.4883 1.4883c0.39174 0.39174 1.0223 0.39174 1.4141 0s0.39174-1.0223 0-1.4141l-1.4883-1.4883a5 5 0 0 0 0.71875-1.7539h2.1133c0.554 0 1-0.446 1-1s-0.446-1-1-1h-2.1016a5 5 0 0 0-0.72656-1.7578l1.4844-1.4844c0.39174-0.39174 0.39174-1.0223 0-1.4141s-1.0223-0.39174-1.4141 0l-1.4844 1.4844a5 5 0 0 0-1.7578-0.72656v-2.1016c0-0.554-0.446-1-1-1z" />
</svg>